<svg width="237" height="59" viewBox="0 0 237 59" fill="none" xmlns="http://www.w3.org/2000/svg">
<path d="M4.512 47V13.4H9.648L24.336 37.928H21.648L36.096 13.4H41.232L41.28 47H35.376L35.328 22.664H36.576L24.288 43.16H21.504L9.024 22.664H10.464V47H4.512ZM64.2278 47.336C61.3798 47.336 58.8838 46.776 56.7398 45.656C54.6278 44.504 52.9798 42.936 51.7958 40.952C50.6438 38.968 50.0678 36.712 50.0678 34.184C50.0678 31.624 50.6278 29.368 51.7478 27.416C52.8998 25.432 54.4678 23.88 56.4518 22.76C58.4678 21.64 60.7558 21.08 63.3158 21.08C65.8118 21.08 68.0358 21.624 69.9878 22.712C71.9398 23.8 73.4758 25.336 74.5958 27.32C75.7158 29.304 76.2758 31.64 76.2758 34.328C76.2758 34.584 76.2598 34.872 76.2278 35.192C76.2278 35.512 76.2118 35.816 76.1798 36.104H54.8198V32.12H73.0118L70.6598 33.368C70.6918 31.896 70.3878 30.6 69.7478 29.48C69.1078 28.36 68.2278 27.48 67.1078 26.84C66.0198 26.2 64.7558 25.88 63.3158 25.88C61.8438 25.88 60.5478 26.2 59.4278 26.84C58.3398 27.48 57.4758 28.376 56.8358 29.528C56.2278 30.648 55.9238 31.976 55.9238 33.512V34.472C55.9238 36.008 56.2758 37.368 56.9798 38.552C57.6838 39.736 58.6758 40.648 59.9558 41.288C61.2358 41.928 62.7078 42.248 64.3718 42.248C65.8118 42.248 67.1078 42.024 68.2598 41.576C69.4118 41.128 70.4358 40.424 71.3318 39.464L74.5478 43.16C73.3958 44.504 71.9398 45.544 70.1798 46.28C68.4518 46.984 66.4678 47.336 64.2278 47.336ZM94.0871 47.336C91.2711 47.336 89.0951 46.616 87.5591 45.176C86.0231 43.704 85.2551 41.544 85.2551 38.696V15.704H91.2551V38.552C91.2551 39.768 91.5591 40.712 92.1671 41.384C92.8071 42.056 93.6871 42.392 94.8071 42.392C96.1511 42.392 97.2711 42.04 98.1671 41.336L99.8471 45.608C99.1431 46.184 98.2791 46.616 97.2551 46.904C96.2311 47.192 95.1751 47.336 94.0871 47.336ZM81.0311 26.36V21.56H98.1191V26.36H81.0311ZM122.975 47V41.816L122.639 40.712V31.64C122.639 29.88 122.111 28.52 121.055 27.56C119.999 26.568 118.399 26.072 116.255 26.072C114.815 26.072 113.391 26.296 111.983 26.744C110.607 27.192 109.439 27.816 108.479 28.616L106.127 24.248C107.503 23.192 109.135 22.408 111.023 21.896C112.943 21.352 114.927 21.08 116.975 21.08C120.687 21.08 123.551 21.976 125.567 23.768C127.615 25.528 128.639 28.264 128.639 31.976V47H122.975ZM114.911 47.336C112.991 47.336 111.311 47.016 109.871 46.376C108.431 45.704 107.311 44.792 106.511 43.64C105.743 42.456 105.359 41.128 105.359 39.656C105.359 38.216 105.695 36.92 106.367 35.768C107.071 34.616 108.207 33.704 109.775 33.032C111.343 32.36 113.423 32.024 116.015 32.024H123.455V36.008H116.447C114.399 36.008 113.023 36.344 112.319 37.016C111.615 37.656 111.263 38.456 111.263 39.416C111.263 40.504 111.695 41.368 112.559 42.008C113.423 42.648 114.623 42.968 116.159 42.968C117.631 42.968 118.943 42.632 120.095 41.96C121.279 41.288 122.127 40.296 122.639 38.984L123.647 42.584C123.071 44.088 122.031 45.256 120.527 46.088C119.055 46.92 117.183 47.336 114.911 47.336ZM139.315 47V13.4H154.003C157.651 13.4 160.851 14.104 163.603 15.512C166.355 16.92 168.499 18.872 170.035 21.368C171.571 23.864 172.339 26.808 172.339 30.2C172.339 33.56 171.571 36.504 170.035 39.032C168.499 41.528 166.355 43.48 163.603 44.888C160.851 46.296 157.651 47 154.003 47H139.315ZM145.555 41.72H153.715C156.243 41.72 158.419 41.24 160.243 40.28C162.099 39.32 163.523 37.976 164.515 36.248C165.539 34.52 166.051 32.504 166.051 30.2C166.051 27.864 165.539 25.848 164.515 24.152C163.523 22.424 162.099 21.08 160.243 20.12C158.419 19.16 156.243 18.68 153.715 18.68H145.555V41.72ZM192.843 47.336C189.995 47.336 187.499 46.776 185.355 45.656C183.243 44.504 181.595 42.936 180.411 40.952C179.259 38.968 178.683 36.712 178.683 34.184C178.683 31.624 179.243 29.368 180.363 27.416C181.515 25.432 183.083 23.88 185.067 22.76C187.083 21.64 189.371 21.08 191.931 21.08C194.427 21.08 196.651 21.624 198.603 22.712C200.555 23.8 202.091 25.336 203.211 27.32C204.331 29.304 204.891 31.64 204.891 34.328C204.891 34.584 204.875 34.872 204.843 35.192C204.843 35.512 204.827 35.816 204.795 36.104H183.435V32.12H201.627L199.275 33.368C199.307 31.896 199.003 30.6 198.363 29.48C197.723 28.36 196.843 27.48 195.723 26.84C194.635 26.2 193.371 25.88 191.931 25.88C190.459 25.88 189.163 26.2 188.043 26.84C186.955 27.48 186.091 28.376 185.451 29.528C184.843 30.648 184.539 31.976 184.539 33.512V34.472C184.539 36.008 184.891 37.368 185.595 38.552C186.299 39.736 187.291 40.648 188.571 41.288C189.851 41.928 191.323 42.248 192.987 42.248C194.427 42.248 195.723 42.024 196.875 41.576C198.027 41.128 199.051 40.424 199.947 39.464L203.163 43.16C202.011 44.504 200.555 45.544 198.795 46.28C197.067 46.984 195.083 47.336 192.843 47.336ZM219.402 47L208.41 21.368H214.65L224.106 43.976H221.034L230.826 21.368H236.586L225.594 47H219.402Z" fill="url(#paint0_radial_1_22)"/>
<defs>
<radialGradient id="paint0_radial_1_22" cx="0" cy="0" r="1" gradientUnits="userSpaceOnUse" gradientTransform="translate(35.9447 -0.0374656) rotate(-0.0597201) scale(98.5564 6.40663e+06)">
<stop stop-color="#39CCCC"/>
<stop offset="0.290267" stop-color="#2CA5AC"/>
<stop offset="0.596261" stop-color="#1C7484"/>
<stop offset="0.766575" stop-color="#0D4760"/>
<stop offset="1" stop-color="#001F3F"/>
</radialGradient>
</defs>
</svg>
