<svg width="48" height="48" viewBox="0 0 48 48" fill="none" xmlns="http://www.w3.org/2000/svg">
<circle cx="24" cy="24" r="24" fill="#0D4760"/>
<path d="M23.9999 13.3333C25.4144 13.3333 26.771 13.8952 27.7712 14.8954C28.7713 15.8956 29.3333 17.2522 29.3333 18.6666C29.3333 20.0811 28.7713 21.4377 27.7712 22.4379C26.771 23.4381 25.4144 24 23.9999 24C22.5854 24 21.2289 23.4381 20.2287 22.4379C19.2285 21.4377 18.6666 20.0811 18.6666 18.6666C18.6666 17.2522 19.2285 15.8956 20.2287 14.8954C21.2289 13.8952 22.5854 13.3333 23.9999 13.3333ZM23.9999 26.6666C29.8933 26.6666 34.6666 29.0533 34.6666 32V34.6666H13.3333V32C13.3333 29.0533 18.1066 26.6666 23.9999 26.6666Z" fill="white"/>
</svg>
