<svg width="628" height="471" viewBox="0 0 628 471" fill="none" xmlns="http://www.w3.org/2000/svg">
<path fill-rule="evenodd" clip-rule="evenodd" d="M325.256 234.286C326.626 234.551 328.898 238.472 329.828 239.587C332.827 243.181 335.827 246.775 338.827 250.369C340.027 251.807 341.758 253.318 342.613 254.982C343.272 256.263 343.497 258.029 343.89 259.402C348.767 276.452 353.538 293.613 357.09 310.997C357.855 314.738 358.581 318.506 359.006 322.304C359.215 324.181 359.767 326.94 358.949 328.754C358.028 330.799 355.062 331.649 353.135 332.283C349.386 333.517 345.461 334.251 341.578 334.91C332.221 336.499 322.747 337.421 313.291 338.167C310.402 338.395 307.428 338.391 304.557 338.78C303.186 338.965 303.597 338.597 303.165 339.518C302.564 340.798 302.963 343.471 302.891 344.867C302.723 348.151 302.555 351.435 302.387 354.719L301.01 381.593C300.545 390.675 300.081 399.757 299.615 408.839C299.439 412.28 299.263 415.721 299.087 419.163C298.993 421.002 299.273 423.377 298.78 425.158C298.406 426.505 299.02 426.108 297.369 426.188C293.544 426.372 289.582 425.909 285.756 425.772C281.417 425.617 277.078 425.462 272.738 425.307C271.499 425.262 270.114 425.614 269.615 424.725C269.007 423.643 269.47 420.669 269.427 419.461C269.307 416.094 269.186 412.727 269.066 409.36C268.735 400.118 268.405 390.876 268.074 381.634C267.623 369.03 267.172 356.426 266.721 343.82C261.896 344.792 257.07 345.763 252.244 346.734C245.114 348.169 237.984 349.604 230.853 351.038C227.583 351.697 223.699 353.198 220.322 352.714C216.968 352.233 215.582 350.8 215.393 347.616C215.191 344.203 215.27 340.764 215.316 337.348C215.391 331.76 215.552 326.174 215.763 320.59C225.29 319.732 234.817 318.874 244.344 318.016C249.417 317.558 254.49 317.102 259.562 316.645C260.714 316.541 263.552 316.764 264.065 315.895C264.864 314.546 263.975 310.11 263.951 308.584L263.724 294.159L262.891 241.082C265.172 241.157 267.453 241.225 269.734 241.289C279.658 241.569 289.63 241.975 299.557 241.67C304.535 241.517 309.251 240.174 313.951 238.589C316.45 237.747 318.923 236.83 321.377 235.865C322.149 235.562 324.422 234.125 325.256 234.286ZM311.801 283.665L306.731 308.461L324.079 307.311L311.801 283.665Z" fill="#FF5678"/>
<path fill-rule="evenodd" clip-rule="evenodd" d="M456.704 82.5661C456.349 85.3241 456.602 88.3309 453.488 89.0579C450.607 89.7313 447.446 89.5424 444.508 89.7781C441.207 90.0434 437.915 90.4058 434.621 90.7322C430.467 91.1437 431.06 89.5475 430.152 86.0003C429.322 82.7613 427.998 79.5285 426.896 76.3693C426.384 74.901 425.773 73.5503 425.075 72.1664C424.443 70.9138 424.743 69.2098 424.062 68.1569C421.737 64.5646 410.396 74.388 409.342 72.4517C411.261 70.9577 414.582 69.2863 415.171 66.7297C415.863 63.7252 413.954 62.8281 411.555 63.9267C405.652 66.631 398.839 68.7447 392.401 69.7303C394.483 68.3384 413.315 57.3686 406.995 54.1147C405.571 53.3814 403.668 54.7619 402.383 55.284C400.345 56.1132 398.215 56.669 396.087 57.2123C393.844 57.7846 391.596 58.3353 389.341 58.8558C387.76 59.221 384.94 60.5181 383.399 60.198C381.835 59.8727 384.606 58.9014 385.06 58.6726C387.039 57.6756 388.986 56.6045 390.917 55.5197C394.344 53.5949 397.51 51.3653 400.116 48.3893C402.083 46.1438 405.331 41.2401 403.962 38.1351C403.168 36.3353 401.429 34.6718 400.407 32.9667C399.215 30.9751 398.252 28.8522 397.216 26.7773C398.95 27.5397 400.896 27.7349 402.666 28.4191C404.436 29.1039 406.233 29.658 408.074 30.167C411.768 31.1879 415.451 31.3694 419.112 32.1974C423.256 33.1344 427.574 34.1822 431.784 34.7237C435.449 35.1945 438.745 36.1977 441.886 38.1962C448.299 42.2787 452.749 48.1434 454.999 55.3959C456.317 59.6444 456.638 64.0773 456.793 68.4976C456.957 73.1582 457.301 77.9261 456.704 82.5661ZM420.709 82.9091C416.23 86.1738 411.009 88.7252 406.203 91.5026C403.452 93.0913 400.644 94.5762 397.839 96.0656C395.848 97.1225 393.429 99.0673 391.238 99.6094C389.851 99.9524 389.955 99.9786 389.077 98.7146C388.239 97.5077 387.507 96.2083 386.722 94.9654C385.275 92.6736 383.815 90.3904 382.354 88.1072C379.08 82.989 375.811 77.8718 372.371 72.8626C368.92 67.8362 365.609 62.7174 362.265 57.6197C360.711 55.2498 359.166 52.8707 357.518 50.5658C356.258 48.8059 353.03 46.1215 354.563 44.0494C355.987 42.1246 359.231 40.5256 361.15 39.0687C363.495 37.29 365.853 35.5295 368.192 33.7416C373.219 29.8982 378.114 25.8876 383.137 22.0391C387.399 29.5153 392.414 36.5242 397.472 43.4748C392.898 46.3937 388.277 49.1683 383.457 51.6672C379.897 53.5127 374.451 56.0065 372.203 59.5075C369.987 62.9548 372.163 66.9323 376.112 66.9957C378.473 67.0333 380.827 66.4079 383.142 66.0506C384.813 65.7927 387.864 64.588 389.371 65.4372C386.663 67.1651 376.837 72.2012 382.134 76.6164C385.919 79.7727 392.32 75.1669 396.409 76.1148C395.163 78.507 393.867 82.323 397.327 83.6241C400.207 84.7072 403.975 82.6888 406.566 81.6182C408.439 80.845 410.3 80.0455 412.141 79.2015C413.605 78.5298 415.358 77.1694 416.923 76.8795C418.748 76.5411 422.465 81.6285 420.709 82.9091ZM337.449 259.227C340.012 258.759 341.328 257.7 342.135 260.811C342.858 263.598 343.574 266.282 344.506 269.018C340.503 269.363 336.972 271.275 334.053 273.963C331.975 275.879 327.841 280.451 328.866 283.658C331.355 291.454 343.931 273.966 345.425 272.097C347.254 274.771 347.927 278.271 348.836 281.329C349.484 283.505 351.885 287.676 348.71 288.205C344.253 288.948 335.891 290.608 336.42 296.921C337.044 304.372 346.523 304.329 351.84 304.664C354.838 304.853 354.852 307.255 355.279 309.944C355.47 311.146 356.067 312.771 355.046 313.651C354.139 314.432 351.363 314.454 350.183 314.707C346.744 315.445 343.307 316.198 339.868 316.936C335.964 317.774 333.9 316.6 330.25 315.531C328.899 315.135 327.542 315.302 327.442 313.789C327.381 312.861 328.29 311.426 328.587 310.507C329.765 306.875 330.768 303.135 331.106 299.32C331.599 293.777 330.984 285.467 324.159 284.385C320.912 283.871 320.287 283.703 318.822 280.656C317.236 277.361 314.719 274.309 315.327 270.513C315.767 267.762 315.025 262.557 316.781 260.276C317.592 259.221 319.174 258.592 320.254 257.818C321.63 256.831 322.956 255.774 324.238 254.668C325.317 253.739 326.632 251.923 327.855 251.252C329.349 250.431 329.395 250.991 330.468 252.272C332.052 254.165 334.57 259.752 337.449 259.227ZM344.692 271.541C343.804 273.334 341.752 275 340.445 276.496C339.13 278.001 337.885 279.591 336.418 280.955C334.804 282.457 329.071 286.083 330.334 281.202C331.317 277.405 334.995 274.33 338.232 272.436C338.859 272.068 346.195 268.509 344.692 271.541ZM350.964 289.615C351.533 292.156 351.839 294.775 352.324 297.335C352.573 298.643 353.949 301.804 353.388 303.063C352.437 305.196 343.883 302.671 342.11 301.937C337.889 300.189 335.952 295.704 339.844 292.509C341.32 291.299 350.396 287.075 350.964 289.615ZM356.572 320.134C357.048 322.56 358.442 324.809 356.138 326.643C354.225 328.165 351.09 329.204 348.733 329.747C345.52 330.485 344.487 328.685 342.786 326.369C340.957 323.879 339.01 321.473 336.99 319.135C343.334 317.715 349.677 316.294 356.02 314.875C356.016 316.642 356.231 318.402 356.572 320.134ZM341.373 331.392C338.065 331.221 334.505 332.217 331.15 332.479C326.961 332.806 322.783 333.282 318.589 333.563C319.663 330.135 321.593 327.078 323.103 323.84C324.617 320.591 325.68 320.239 329.164 319.989C332.392 319.757 334.669 318.646 337.051 321.384C339.53 324.232 341.775 327.328 344.038 330.347C343.268 330.862 342.348 331.443 341.373 331.392ZM317.726 332.092C316.91 332.687 314.393 330.996 313.545 330.669C311.895 330.031 311.529 329.826 310.668 328.217C309.928 326.833 308.751 325.26 308.519 323.681C308.214 321.599 309.135 318.857 309.47 316.789C310.364 318.942 313.296 319.192 315.277 319.544C316.775 319.811 321.214 319.386 322.344 320.453C323.592 321.632 321.294 324.92 320.695 326.158C319.981 327.636 319.098 331.093 317.726 332.092ZM316.127 333.8C315.145 333.959 312.318 334.936 312.374 333.142C312.438 331.093 316.327 333.304 316.127 333.8ZM311.145 333.693C310.966 335.418 307.253 335.275 307.168 333.757C307.023 331.192 311.431 330.937 311.145 333.693ZM306.9 287.157C305.95 289.861 300.168 290.828 297.947 291.661C295.919 292.421 289.861 295.93 287.77 294.657C294.848 289.792 302.102 285.025 308.099 278.814C308.345 280.348 307.971 281.63 307.518 283.082C307.11 284.393 307.32 285.959 306.9 287.157ZM305.139 297.017C304.121 303.64 303.121 310.35 301.743 316.907C299.116 316.105 296.95 314.478 294.191 313.911C291.672 313.394 289.071 313.382 286.532 313.76C281.122 314.564 276.298 317.241 271.577 319.849C271.141 315.307 270.238 310.446 270.345 305.888C270.434 302.102 276.913 300.981 279.852 299.417C281.629 298.47 283.237 297.14 285.263 296.81C287.347 296.47 289.359 296.48 291.418 295.845C296.286 294.343 300.867 291.962 305.637 290.187C306.026 292.46 305.485 294.777 305.139 297.017ZM300.591 325.047C300.374 326.553 300.647 329.239 299.5 330.387C298.419 331.468 296.112 331.503 294.687 331.796C290.347 332.689 286.011 333.591 281.677 334.512C279.739 334.924 277.799 335.317 275.852 335.686C274.924 335.861 272.594 336.751 271.813 336.012C271.071 335.311 271.623 333.069 271.663 332.129C271.743 330.25 271.849 328.366 271.731 326.486C271.505 322.882 271.706 321.501 275.061 319.636C278.625 317.654 282.306 316.298 286.318 315.563C290.38 314.82 294.25 315.227 298.116 316.786C299.192 317.22 300.806 317.754 301.307 318.914C301.988 320.493 300.82 323.448 300.591 325.047ZM295.704 383.153C294.114 384.15 290.652 383.98 288.824 384.183C285.874 384.509 282.904 384.323 279.973 383.867C277.766 383.525 274.473 383.051 272.782 381.501C270.379 379.3 273.151 379.199 274.99 379.354C280.337 379.804 285.75 379.49 291.091 379.104C292.131 379.028 294.926 378.115 295.929 378.543C297.211 379.089 296.818 382.454 295.704 383.153ZM292.673 418.726C282.712 417.758 276.937 409.509 273.325 401.077C271.386 396.55 272.085 391.8 271.894 387.013C271.859 386.139 271.31 383.968 272.209 383.316C273.054 382.702 276.471 384.599 277.395 384.826C282.133 385.987 287.372 386.098 292.121 384.97C294.178 384.481 295.329 383.573 295.983 385.611C296.509 387.253 295.646 390.278 295.551 391.999C295.389 394.975 295.855 419.034 292.673 418.726ZM272.775 418.735C272.737 417.29 272.008 402.689 272.715 402.646C274.816 407.179 276.975 411.234 280.801 414.569C282.755 416.273 284.952 417.809 287.396 418.724C288.315 419.067 293.518 419.328 293.773 420.467C294.219 422.461 290.667 421.656 289.613 421.494C288.768 421.364 288.007 421.004 287.178 420.853C285.598 420.567 284.105 420.952 282.518 420.984C280.107 421.033 277.74 420.78 275.328 420.989C273.123 421.179 272.834 420.925 272.775 418.735ZM274.245 353.247C282.772 350.491 289.899 355.711 294.399 362.542C296.965 366.438 297.539 369.163 297.09 373.776C296.929 375.427 297.226 376.545 295.708 377.218C294.205 377.885 290.791 377.39 289.165 377.466C284.488 377.685 279.83 377.975 275.154 377.698C272.116 377.518 271.687 377.004 271.739 374.055C271.802 370.505 271.507 366.972 271.306 363.417C271.089 359.57 269.768 354.694 274.245 353.247ZM271.455 348.134C271.46 345.527 271.303 342.851 271.463 340.247C271.621 337.665 272.72 337.793 275.157 337.352C280.435 336.398 285.706 335.331 290.912 334.037C292.972 333.526 295.298 332.544 297.444 332.536C299.695 332.527 299.576 333.685 299.426 335.678C299.092 340.093 298.283 344.443 298.037 348.835C297.772 353.575 297.632 358.376 297.653 363.121C297.661 364.723 298.05 365.909 296.685 364.41C295.317 362.909 294.648 360.516 293.428 358.829C290.927 355.373 287.211 352.594 283.087 351.423C280.806 350.776 278.408 350.664 276.083 351.132C275.378 351.274 271.845 352.961 271.395 352.627C271.091 352.402 271.454 348.24 271.455 348.134ZM302.65 438.523C306.032 440.945 309.777 442.902 313.569 444.6C315.702 445.556 324.147 447.568 324.417 449.719C324.561 450.867 323.161 452.153 322.244 452.289C321.082 452.461 319.166 451.702 317.981 451.558C313.674 451.035 309.376 451.032 305.174 449.833C296.784 447.438 288.085 446.764 279.607 444.676C277.59 444.18 275.569 443.714 273.541 443.264C271.616 442.837 270.753 442.91 270.685 440.852C270.535 436.336 271.83 431.708 271.84 427.135C278.699 427.918 285.58 427.908 292.457 428.552C295.404 428.828 295.336 429.387 296.627 431.961C297.967 434.633 300.247 436.803 302.65 438.523ZM269.211 291.781C269.124 290.109 269.056 288.432 268.905 286.765C268.803 285.644 267.78 282.513 268.357 281.641C269.043 280.605 269.733 281.237 270.96 281.208C272.577 281.17 273.931 280.52 275.264 279.669C277.789 278.059 279.666 275.939 281.305 273.464C282.746 271.287 282.478 268.312 282.461 265.704C282.415 258.962 282.906 252.386 282.495 245.614C282.306 242.503 284.961 244.411 287.105 244.814C290.613 245.472 294.425 245.016 297.989 245.025C297.857 245.854 290.568 247.912 289.39 248.696C286.375 250.701 284.617 253.908 284.892 257.565C285.446 264.922 293.548 266.152 299.468 266.166C294.557 270.509 289.732 274.65 285.872 280.008C283.026 283.959 278.012 291.748 282.665 296.118C278.552 298.455 274.475 301.053 269.823 302.177C269.615 298.712 269.391 295.247 269.211 291.781ZM267.344 157.485C269.018 158.561 269.722 157.04 270.997 156.252C272.792 155.143 273.386 155.252 273.614 152.773C274.035 148.177 272.101 144.016 269.673 140.254C268.57 138.544 267.469 136.508 265.911 135.172C264.491 133.953 263.056 134.373 261.74 133.113C261.224 132.618 261.335 131.919 260.481 131.939C259.919 131.952 258.552 133.694 258.088 134.078C256.621 135.293 254.826 136.217 252.904 135.216C250.105 133.758 251.004 128.468 253.178 126.755C254.852 125.435 256.83 125.639 258.736 125.426C260.165 125.267 260.462 125.329 259.875 123.694C259.463 122.548 258.513 121.655 258.044 120.534C257.142 118.384 257.338 115.769 256.949 113.493C256.599 111.453 255.781 109.247 255.811 107.176C255.85 104.538 256.711 103.853 258.997 103.113C261.211 102.397 263.044 100.818 264.93 99.4913C267.064 97.9893 269.402 96.9975 271.596 95.6262C273.085 94.6949 274.046 92.8123 275.683 93.6917C277.629 94.7365 279.687 97.7616 281.341 99.3075C278.92 100.844 278.357 101.517 278.691 104.525C278.997 107.283 279.559 109.741 281.667 111.662C282.477 112.401 283.988 112.992 284.616 113.843C285.348 114.835 284.872 113.961 284.779 115.081C284.73 115.684 284.253 116.079 284.357 116.777C284.821 119.877 288.382 118.047 289.85 116.971C295.092 113.123 285.303 110.068 282.978 108.666C281.372 107.698 280.578 104.607 283.122 105.428C284.814 105.975 288.637 110.605 289.025 106.384C293.222 108.822 295.811 114 299.33 117.275C301.867 119.636 305.275 122.255 303.261 126.027C300.695 130.834 295.606 133.016 290.96 135.091C286.453 137.102 287.389 142.795 289.798 146.28C291.19 148.294 293.015 149.474 295.21 150.453C297.453 151.453 297.918 152.628 298.408 154.949C298.952 157.522 298.374 158.56 296.145 159.889C293.97 161.188 291.695 162.446 289.372 163.462C284.349 165.66 279.138 165.799 273.795 166.548C271.922 166.811 270.127 167.358 269.105 165.501C267.956 163.412 267.871 159.814 267.344 157.485ZM266.536 147.487C265.279 146.825 262.243 149.026 260.654 149.122C258.082 149.278 256.394 149.219 254.112 150.583C249.797 153.161 246.216 156.481 242.757 160.08C238.859 164.135 234.985 168.211 231.101 172.277C229.34 174.119 227.571 175.952 225.783 177.766C224.374 179.196 222.996 181.207 221.252 182.227C221.342 181.015 222.086 180.157 222.349 179.034C222.503 178.377 222.234 177.819 222.334 177.191C222.366 176.986 222.915 176.276 222.998 176.044C223.221 175.429 223.493 174.822 223.757 174.184C224.004 173.588 223.968 172.971 224.218 172.349C224.475 171.707 225.18 171.283 225.424 170.651C226.14 168.802 224.955 167.945 223.059 167.988C223.801 164.289 224.125 162.479 227.993 161.174C231.688 159.928 235.299 158.529 238.693 156.581C241.708 154.852 244.222 152.36 247.12 150.433C249.714 148.707 252.943 146.899 252.917 143.361C254.387 144.358 255.766 145.198 257.448 144.205C258.868 143.366 259.057 142.691 260.698 142.533C262.038 142.404 262.869 142.37 264.065 142.96C265.472 143.652 265.664 144.135 266.484 142.094C267.415 142.878 269.77 146.144 269.692 147.436C269.649 148.149 269.541 148.47 268.659 148.658C267.407 148.924 267.455 147.972 266.536 147.487ZM260.673 340.766C260.061 341.704 257.481 341.531 256.485 341.518C253.449 341.479 252.387 338.93 251.055 336.468C248.955 332.586 245.816 324.521 249.261 320.447C251.981 317.231 257.278 321.283 259.134 323.711C260.736 325.81 260.26 328.957 260.409 331.475C260.534 333.597 261.881 338.915 260.673 340.766ZM252.377 342.172C251.163 343.386 247.223 343.129 245.615 343.39C242.744 343.854 239.889 344.413 237.104 345.261C235.03 345.892 232.981 347.591 232.434 344.7C231.975 342.27 232.203 339.355 232.247 336.903C232.295 334.257 232.571 331.644 232.801 329.01C232.957 327.228 232.567 323.951 234.022 322.584C235.275 321.405 238.322 321.292 239.95 320.901C242.621 320.261 245.413 319.419 248.19 319.706C246.57 324.104 246.432 328.716 248.17 333.099C248.665 334.35 253.127 341.422 252.377 342.172ZM231.959 324.651C231.282 331.267 230.601 337.924 231.253 344.573C231.292 344.97 231.766 346.786 231.56 347.07C231.347 347.365 229.661 347.517 229.278 347.607C227.758 347.968 226.239 348.35 224.709 348.67C221.731 349.293 221.342 347.411 220.758 344.651C219.506 338.737 221.933 332.325 223.403 326.646C224.12 323.88 224.65 323.561 227.37 323.332C229.263 323.173 232.247 321.84 231.959 324.651ZM220.458 349.333C219.32 350.368 218.183 345.484 218.082 344.986C217.684 343.009 217.906 341.005 217.912 338.997C217.921 335.861 217.682 332.74 217.677 329.619C217.674 327.931 216.409 324.479 218.407 323.586C218.993 323.324 221.322 323.433 221.85 323.778C222.948 324.495 222.515 324.959 222.19 326.206C221.462 329.005 220.832 331.817 220.198 334.639C219.576 337.405 218.962 340.068 219.259 342.925C219.356 343.87 221.184 348.673 220.458 349.333ZM256.755 318.508C259.529 317.726 259.678 319.852 259.673 321.886C259.25 321.562 255.307 318.916 256.755 318.508ZM219.643 169.175C218.964 170.295 214.658 170.601 213.427 170.896C211.007 171.476 208.585 172.052 206.171 172.656C201.647 173.787 197.235 175.063 192.599 175.654C195.145 171.578 195.937 168.057 195.463 162.97C194.866 156.546 194.106 150.188 192.627 143.901C191.169 137.7 189.482 131.542 187.856 125.383C187.058 122.358 186.194 119.39 185.132 116.446C184.28 114.086 182.951 111.116 184.396 108.697C188.063 111.372 191.005 114.255 193.097 118.32C195.338 122.678 197.295 127.151 199.896 131.32C201.085 133.226 202.474 134.964 203.746 136.809C204.503 137.907 205.054 139.491 206.018 140.417C207.129 141.484 208.314 141.987 208.95 140.186C209.631 138.253 207.457 134.429 206.816 132.613C205.266 128.231 203.729 123.858 202.534 119.363C201.567 115.73 199.969 111.337 200.535 107.503C201.095 103.708 203.67 106.424 204.973 108.189C207.66 111.827 209.268 116.067 211.033 120.191C212.655 123.981 214.547 127.593 216.342 131.294C216.966 132.582 217.789 135.909 219.425 136.292C221.803 136.85 221.602 133.501 221.374 132.142C219.868 123.135 215.934 114.511 215.118 105.348C215.078 104.91 214.51 101.506 214.967 101.222C215.853 100.67 217.049 104.124 217.432 104.97C219.421 109.372 220.806 114.012 222.077 118.661C223.158 122.616 224.136 126.6 225.349 130.516C226.016 132.669 226.78 134.787 227.533 136.91C228.215 138.834 228.907 142.121 230.684 143.389C233.206 145.187 242.229 140.911 243.144 144.734C243.794 147.451 235.427 149.639 233.645 150.464C231.299 151.55 228.998 152.739 226.651 153.826C224.874 154.648 222.321 154.986 221.035 156.533C219.674 158.173 219.455 160.475 219.415 162.509C219.384 164.048 220.45 167.847 219.643 169.175ZM213.941 198.842C213.822 199.696 213.143 200.826 212.838 201.639C212.216 203.294 211.688 205.272 210.823 206.819C210.079 208.151 208.982 209.341 208.263 210.693C207.582 211.976 207.491 213.455 206.695 214.74C205.784 216.208 204.278 217.263 203.373 218.722C202.928 219.442 202.467 220.263 201.837 221.03C199.606 223.744 197.391 226.305 195.596 229.214C195.137 229.958 192.896 233.208 192.004 233.384C190.139 233.75 192.31 231.1 192.675 230.551C195.317 226.586 197.663 222.412 200.213 218.385C202.683 214.487 205.211 210.618 207.588 206.661C209.527 203.434 210.868 198.802 214.019 196.529C214.031 197.302 214.005 198.073 213.941 198.842ZM300.091 162.401C301.626 168.711 303.461 174.825 305.191 181.077C306.797 186.879 308.933 193.088 309.599 199.069C310.258 204.994 311.773 210.989 313.81 216.613C314.752 219.215 315.72 221.827 316.742 224.399C317.304 225.812 317.932 227.193 318.569 228.573C319.064 229.645 320.372 231.381 320.422 232.517C320.462 233.427 320.778 233.063 319.88 233.747C318.951 234.455 317.34 234.198 316.257 234.323C313.433 234.649 310.679 235.712 307.926 236.4C302.616 237.727 296.287 238.78 290.846 237.857C288.557 237.468 286.18 237.131 283.917 236.625C281.132 236.002 280.56 234.85 279.989 232.113C278.739 226.13 277.662 220.162 276.63 214.138C275.403 206.974 274.075 199.817 273.128 192.608C272.172 185.315 271.484 178.015 269.986 170.801C276.032 171.812 281.725 172.954 287.789 171.297C293.159 169.83 297.035 166.963 300.091 162.401ZM323.759 240.513C325.11 243.299 321.852 245.803 320.274 247.949C318.191 250.777 316.247 253.732 313.825 256.29C313.099 253.383 312.461 250.112 310.523 247.725C308.047 244.676 305.157 245.921 302.124 244.479C305.305 242.932 309.366 243.522 312.741 242.142C316.069 240.781 319.43 239.713 322.527 237.945C322.938 238.801 323.345 239.658 323.759 240.513ZM311.962 305.51C309.929 305.623 311.289 301.335 311.421 300.27C311.784 297.341 312.151 294.413 312.469 291.479C314.147 295.903 315.823 300.326 317.5 304.748C315.657 305.011 313.826 305.406 311.962 305.51ZM308.655 326.713C308.933 327.329 310.226 329.384 309.205 329.763C307.805 330.281 307.637 326.879 308.655 326.713ZM306.23 279.063C299.753 284.234 293.322 289.418 286.315 293.869C284.779 294.845 283.233 295.253 282.216 293.319C281.416 291.798 282.261 290.085 282.774 288.596C284.082 284.8 286.361 281.501 288.887 278.412C293.931 272.243 299.935 266.974 307.595 264.542C308.849 264.144 310.784 262.943 311.223 264.601C311.481 265.577 310.387 268.012 310.165 268.927C309.25 272.708 309.45 276.493 306.23 279.063ZM324.872 316.773C325.015 321.163 313.012 317.622 311.517 316.837C313.086 316.311 324.808 314.799 324.872 316.773ZM329.329 316.8C330.042 316.99 332.777 317.232 331.755 318.166C330.841 319.003 326.7 318.667 325.603 318.77C326.34 316.348 326.9 316.154 329.329 316.8ZM327.105 310.919C326.837 311.896 326.728 313.386 325.853 314.055C324.762 314.889 322.444 314.383 321.21 314.39C319.113 314.4 317.018 314.508 314.931 314.716C314.133 314.795 310.899 315.77 310.151 315.105C309.601 314.617 309.806 312.326 310.206 311.811C311.028 310.752 312.921 311.119 314.107 311.076C318.447 310.921 322.763 310.909 327.105 310.919ZM324.319 294.69C323.707 293.78 323.597 293.789 323.336 292.414C323.057 290.942 322.346 289.683 321.928 288.261C321.009 285.132 323.946 285.41 326.1 286.557C331.688 289.535 330.339 299.937 328.957 304.807C326.948 303.33 326.207 302.66 325.515 300.277C325.253 299.371 324.958 298.481 324.685 297.581C324.484 296.918 324.624 295.144 324.319 294.69ZM324.803 244.062C326.363 243.874 327.79 248.714 327.345 249.762C326.433 251.905 322.947 253.819 321.172 255.187C319.99 256.097 318.816 257.141 317.553 257.935C316.38 258.672 315.705 258.258 314.615 258.612C313.036 259.123 312.654 260.793 311.039 261.511C308.766 262.521 306.012 262.803 303.638 263.715C300.758 264.822 298.118 264.852 295.098 264.327C290.755 263.574 285.665 261.419 286.056 256.142C286.746 246.831 305.237 242.06 310.28 249.955C311.592 252.01 311.572 254.405 312.424 256.612C313.347 259.001 314.242 258.062 315.63 256.303C317.446 254.001 319.133 251.575 320.878 249.219C321.442 248.457 323.677 244.199 324.803 244.062ZM211.485 334.715C211.396 336.299 211.491 337.905 210.94 339.416C210.386 340.94 209.261 342.172 208.613 343.652C207.3 346.654 207.309 350.285 207.362 353.5C207.484 360.982 209.256 368.249 210.193 375.641C207.074 375.634 203.849 375.669 200.826 374.777C198.126 373.981 197.695 372.007 196.931 369.52C194.787 362.536 192.471 355.581 191.778 348.266C191.449 344.781 191.31 341.267 191.153 337.77C191.015 334.702 191.704 333.363 194.474 331.845C200.493 328.543 206.732 325.794 212.69 322.335C212.081 326.439 211.717 330.575 211.485 334.715ZM468.447 89.5755C466.981 89.3067 465.502 89.1384 464.023 88.962C463.252 88.8696 460.847 88.998 460.269 88.4952C459.582 87.8966 460.772 83.3707 460.833 82.3995C461.205 76.5588 460.773 70.5377 460.237 64.7193C459.268 54.1861 455.955 44.4278 448.312 36.8432C444.508 33.0677 440.231 30.0723 435.036 28.6268C432.009 27.7845 428.89 27.3354 425.856 26.5188C423.409 25.8591 421.126 25.1041 418.584 24.8428C413.514 24.3212 408.879 22.4055 403.931 21.2972C400.29 20.4818 394.436 18.5478 392.076 22.6583C390.218 20.4795 388.349 18.8434 386.006 17.2182C383.762 15.6614 383.395 14.1064 380.647 15.9039C375.307 19.397 370.306 23.6581 365.319 27.6321C360.661 31.3437 356.155 35.2305 351.273 38.6436C346.294 42.1252 347.238 48.0332 349.58 52.9312C353.985 62.1502 360.779 70.0316 366.726 77.9341C370.451 82.8845 374.189 87.8413 377.899 92.8014C381.446 97.5425 384.514 103.029 388.659 107.289C391.273 109.974 394.392 106.462 396.75 104.84C399.677 102.825 402.554 100.735 405.484 98.726C411.587 94.5408 418.118 90.621 424.561 86.9779C425.03 88.3064 425.498 89.6348 425.967 90.9633C424.552 91.0695 422.64 90.7533 421.92 92.2747C420.891 94.4478 423.416 94.7331 423.858 95.9789C424.254 97.0917 422.633 100.031 422.153 101.033C421.075 103.292 419.569 105.24 417.911 107.1C411.349 114.46 403.046 119.724 394.621 124.742C385.605 130.111 375.942 133.388 366.072 136.848C361.053 138.607 355.844 139.424 350.665 140.551C345.674 141.636 340.688 143.062 335.588 143.471C325.155 144.309 314.083 144.936 303.776 142.686C302.648 142.44 301.454 141.907 300.306 141.805C299.386 141.724 298.704 142.109 297.835 142.159C295.97 142.266 294.901 140.598 293.42 142.148C292.678 142.922 292.665 144.224 291.632 142.778C290.318 140.937 293.677 140.581 294.922 140.057C299.113 138.291 302.483 134.737 305.146 131.144C307.807 127.554 308.19 123.72 306.569 119.516C304.949 115.315 301.265 112.466 298.499 109.054C297.161 107.402 295.93 105.654 294.461 104.112C293.677 103.288 292.413 102.499 292.364 101.668C292.307 100.703 292.885 100.223 292.539 99.049C292.45 98.7437 292.066 98.5702 291.985 98.2347C291.856 97.7 292.055 97.2412 291.988 96.7202C291.833 95.5252 291.364 94.7748 290.701 93.7955C290.288 93.1838 289.683 91.9592 289.115 91.5009C288.118 90.6974 286.759 91.025 285.746 90.2106C284.143 88.9227 283.579 86.2086 282.161 84.645C280.164 82.4445 279.739 84.6678 277.623 83.9665C275.815 83.3662 275.836 80.6447 274.374 79.7242C272.315 78.4277 270.581 80.813 268.753 81.3443C266.348 82.0434 267.272 79.3299 265.128 79.0828C263.192 78.8591 260.511 82.7864 259.545 84.1811C258.562 83.0346 257.486 81.0812 255.716 81.7809C253.858 82.5159 253.528 85.9353 252.17 87.1553C251.697 87.5793 251.797 87.8926 251.215 88.0878C250.463 88.3395 249.461 87.2484 248.489 87.5811C246.529 88.2522 246.768 90.8686 246.764 92.5635C244.451 92.2256 242.837 92.0533 242.063 94.5465C241.305 96.9867 241.017 95.9098 238.578 96.7025C236.475 97.3856 236.181 99.3823 235.834 101.335C235.62 102.549 235.818 103.045 236.145 104.152C236.557 105.547 236.557 105.529 235.885 106.861C234.715 109.183 234.644 111.742 234.457 114.298C234.259 117.026 233.781 119.509 234.557 122.173C235.036 123.821 235.072 126.065 236.687 126.988C237.328 127.354 238.415 127.153 238.96 127.516C240.001 128.209 239.684 129.264 240.377 130.275C240.896 131.033 241.734 131.106 242.315 131.72C242.948 132.388 242.985 133.202 243.346 134.018C244.412 136.433 245.415 137.601 241.939 137.739C239.795 137.824 237.508 138.467 235.373 138.27C232.853 138.038 232.227 136.629 231.425 134.485C227.383 123.678 225.21 111.964 219.887 101.687C218.718 99.4302 213.92 90.2118 211.892 96.9285C210.182 102.593 212.426 109.507 213.286 115.146C210.587 112.713 209.589 108.331 207.539 105.361C206.026 103.167 201.286 97.7782 198.507 100.866C196.317 103.3 196.864 108.46 197.269 111.37C197.907 115.973 199.378 120.409 200.429 124.924C199.106 123.194 198.453 121.08 197.536 119.132C196.384 116.689 194.948 114.371 193.311 112.224C191.881 110.348 190.281 108.604 188.547 107.004C187.222 105.781 184.848 103.103 182.966 102.958C178.122 102.587 179.645 111.472 180.383 114.013C181.912 119.278 183.57 124.398 184.758 129.77C187.078 140.264 189.889 150.516 191.599 161.144C191.977 163.501 192.433 165.382 191.501 167.647C190.68 169.642 189.828 172.029 188.312 173.563C184.882 177.038 182.034 180.749 179.47 184.936C176.724 189.42 173.897 193.956 171.655 198.716C170.624 200.907 169.781 203.275 168.596 205.382C167.527 207.284 166.241 208.786 165.48 210.891C161.848 220.95 159.158 230.834 157.926 241.485C156.915 250.23 157.857 261.862 168.415 263.909C173.265 264.848 177.62 262.698 181.994 260.922C186.518 259.086 189.789 256.102 193.479 252.93C198.064 248.989 202.824 245.291 207.457 241.416C212.093 237.538 216.375 233.238 220.985 229.319C225.539 225.447 229.659 221.335 233.597 216.839C237.504 212.379 240.677 207.437 244.46 202.915C244.445 208.77 243.576 214.572 243.332 220.42C243.109 225.781 243.104 231.137 243.32 236.496C243.537 241.851 242.122 246.949 242.11 252.293C242.098 257.506 241.892 262.689 241.778 267.896C241.726 270.233 241.269 272.853 242.141 275.107C242.793 276.789 244.842 277.316 246.589 277.769C249.29 278.47 257.416 277.12 258.622 280.006C259.28 281.58 258.617 284.447 258.669 286.186C258.754 289.053 258.859 291.92 258.957 294.786C259.059 297.747 259.158 300.707 259.266 303.668C259.362 306.275 259.869 309.181 259.554 311.763C259.286 313.976 257.995 313.687 255.95 313.801C252.863 313.971 249.776 314.108 246.687 314.243C242.157 314.442 237.43 314.351 233.087 314.885C231.263 315.11 229.27 315.014 227.346 315.38C224.932 315.839 222.704 315.956 220.256 316.077C218.283 316.175 215.747 316.031 214.197 317.49C213.659 317.996 213.538 318.599 213.157 319.163C212.443 320.218 212.84 319.94 211.669 320.178C207.092 321.105 202.746 322.151 198.271 323.71C196.031 324.491 193.952 325.539 191.701 326.274C189.729 326.917 188.283 327.71 187.308 329.646C185.566 333.104 186.008 338.107 186.134 341.834C186.332 347.649 187.624 353.184 189.017 358.807C190.466 364.657 191.603 370.664 194.422 376.039C195.348 377.805 196.348 380.058 198.24 380.978C200.683 382.166 204.44 381.446 207.106 381.451C208.895 381.454 213.687 382.068 215.025 380.568C216.32 379.115 215.017 375.018 214.834 373.215C214.193 366.897 213.04 360.52 213.055 354.159C214.514 356.315 217.045 360.038 219.578 356.734C220.201 355.921 219.958 355.543 221.064 355.071C221.677 354.811 222.967 354.651 223.634 354.696C224.541 354.757 224.877 355.122 225.71 354.943C226.447 354.785 227.277 354.125 228.122 353.924C238.605 351.432 249.028 348.747 259.556 346.527C262.34 345.94 261.944 348.077 262.128 350.483C262.331 353.145 261.944 355.833 262.313 358.465C262.634 360.755 262.884 362.987 262.432 365.291C261.898 368.008 262.242 370.275 262.773 372.966C264.821 383.342 264.455 394.596 264.917 405.142C265.157 410.634 264.641 416.242 265.158 421.705C265.353 423.768 266.504 424.909 266.971 426.786C267.507 428.941 266.046 431.685 265.601 433.773C264.708 437.964 263.138 443.963 266.009 447.609C267.559 449.579 269.592 449.865 271.887 450.531C274.633 451.328 277.34 452.257 280.1 453.012C290.182 455.772 301.077 456.311 311.411 457.832C313.941 458.204 316.288 458.17 318.835 457.993C320.404 457.884 324.271 458.401 325.576 457.461C326.275 456.959 325.921 456.329 326.276 455.715C326.781 454.841 327.393 454.487 328.252 453.943C329.676 453.044 331.322 452.518 331.562 450.661C332.149 446.113 326.465 443.703 323.426 441.736C319.542 439.222 314.85 438.251 310.728 436.199C308.454 435.067 306.26 433.784 304.069 432.5C303.118 431.943 301.192 431.312 300.53 430.435C299.854 429.54 300.516 428.263 300.795 426.984C301.951 421.7 301.56 416.297 302.158 410.958C302.755 405.61 302.593 400.228 302.79 394.853C302.993 389.317 303.45 383.794 303.801 378.266C304.124 373.161 304.45 367.973 304.504 362.862C304.555 358.123 305.201 353.473 305.354 348.703C305.406 347.084 305.115 344.147 306.19 342.776C307.133 341.573 310.255 341.724 311.711 341.513C315.635 340.944 319.37 340.444 323.25 340.101C332.483 339.284 342.757 338.682 351.487 335.464C355.087 334.137 359.878 332.324 361.073 328.19C362.447 323.437 360.653 317.596 360.594 312.737C360.531 307.549 359.027 302.487 357.899 297.46C356.684 292.049 355.919 286.544 354.607 281.153C353.403 276.206 351.45 271.825 349.604 267.129C348.854 265.224 344.588 258.66 345.911 257.041C346.624 256.169 349.192 255.948 350.234 255.549C352.479 254.691 354.728 253.714 356.799 252.49C359.563 250.856 365.616 248.154 365.895 244.524C366.161 241.054 362.751 237.548 361.019 234.824C358.226 230.433 354.705 226.595 352.046 222.117C346.672 213.069 342.398 203.158 338.479 193.408C336.43 188.306 335.76 183.502 335.423 178.057C341.375 178.071 347.433 178.803 353.347 177.971C359.783 177.065 366.228 175.54 372.608 174.282C384.227 171.992 395.382 169.407 406.145 164.25C416.224 159.422 426.45 154.137 434.795 146.473C439.11 142.509 443.512 138.47 447.238 133.938C451.066 129.283 453.945 123.993 456.898 118.766C460.158 112.998 462.753 106.935 464.804 100.625C465.217 99.356 465.219 97.7405 465.747 96.5421C466.343 95.1891 467.427 95.1537 468.558 94.4409C470.15 93.4383 471.21 90.0828 468.447 89.5755Z" fill="black"/>
<path fill-rule="evenodd" clip-rule="evenodd" d="M329.878 24.9971C331.239 26.1659 337.103 30.2832 338.997 29.2821C341.334 28.0461 337.634 24.3233 336.638 23.4054C335.37 22.2378 330.84 18.7052 329.106 19.0331C325.639 19.689 328.654 23.945 329.878 24.9971Z" fill="black"/>
<path fill-rule="evenodd" clip-rule="evenodd" d="M332.775 67.2537C333.543 65.7407 335.588 65.1845 336.533 63.7204C337.671 61.9603 338.193 60.4201 337.774 58.2617C334.863 59.2418 331.55 62.208 329.602 64.5278C327.974 66.4663 325.661 70.5171 329.91 70.5273C329.873 69.9507 329.836 69.3734 329.799 68.7973C331.073 68.9826 332.196 68.394 332.775 67.2537Z" fill="black"/>
<path fill-rule="evenodd" clip-rule="evenodd" d="M318.905 42.0819C320.782 42.6214 322.331 42.5451 324.249 42.5873C325.64 42.6182 327.542 43.3831 328.67 42.521C327.669 41.9415 328.934 41.9094 328.686 41.3443C328.478 40.8732 328.082 41.0275 327.762 40.6461C326.616 39.2873 325.62 39.3038 323.803 39.0213C322.395 38.8012 320.325 38.2937 318.973 38.9935C317.55 39.7301 316.999 41.5339 318.905 42.0819Z" fill="black"/>
<path fill-rule="evenodd" clip-rule="evenodd" d="M345.623 83.7616C346.837 82.7435 348.16 79.7957 348.405 78.2749C348.501 77.6791 348.072 77.2225 348.123 76.7839C348.221 75.9483 349.939 74.3326 348.14 73.6469C346.566 73.0466 345.087 77.71 344.687 78.7276C344.276 79.7682 343.159 81.7955 343.502 82.8024C343.787 83.6375 344.803 84.4484 345.623 83.7616Z" fill="black"/>
<path fill-rule="evenodd" clip-rule="evenodd" d="M360.144 20.6445C361.243 19.6252 361.937 18.4691 361.824 17.0673C361.734 15.9631 360.907 12.1561 359.976 12.268C356.886 12.641 358.275 22.3804 360.144 20.6445Z" fill="black"/>
<path fill-rule="evenodd" clip-rule="evenodd" d="M294.905 190.851C294.651 189.92 293.727 184.229 292.128 184.617C290.914 184.911 292.175 189.92 292.232 190.579C292.35 191.957 289.7 191.912 288.468 191.726C286.515 191.431 286.672 190.286 286.38 188.511C286.27 187.84 285.847 184.807 284.448 185.918C283.502 186.669 284.178 190.408 284.257 191.261C284.53 194.216 284.85 199.262 286.607 201.946C287.307 203.016 287.937 203.544 288.673 202.172C289.418 200.783 287.732 196.55 287.437 195.129C288.828 195.265 292.83 194.813 293.668 196.258C294.433 197.576 293.209 201.342 295.663 201.648C297.118 201.829 296.855 200.143 296.715 198.846C296.421 196.126 295.623 193.479 294.905 190.851Z" fill="black"/>
<path fill-rule="evenodd" clip-rule="evenodd" d="M298.633 189.535C297.022 190.263 299.045 200.877 301.403 200.535C304.155 200.135 300.169 188.841 298.633 189.535Z" fill="black"/>
<path fill-rule="evenodd" clip-rule="evenodd" d="M296.837 186.02C296.639 188.41 299.744 189.301 299.891 186.703C300.005 184.699 297.047 183.507 296.837 186.02Z" fill="black"/>
<path fill-rule="evenodd" clip-rule="evenodd" d="M279.789 122.654C281.207 127.938 294.113 130.185 292.374 123.059C291.503 119.491 287.867 122.661 285.328 122.246C283.685 121.977 278.791 118.928 279.789 122.654Z" fill="black"/>
<path fill-rule="evenodd" clip-rule="evenodd" d="M276.548 113.228C277.155 110.401 270.97 107.28 268.726 108.059C265.443 109.198 265.457 116.48 267.961 118.416C268.291 118.671 269.301 119.279 269.796 118.795C270.577 118.029 269.724 118.238 269.541 117.473C269.252 116.257 268.306 114.695 269.248 113.311C271.029 110.697 275.679 117.28 276.548 113.228Z" fill="black"/>
<path fill-rule="evenodd" clip-rule="evenodd" d="M257.689 126.953C255.459 126.827 253.631 130.288 256.911 129.998C257.54 129.943 258.89 129.785 259.254 129.125C259.858 128.031 258.67 127.007 257.689 126.953Z" fill="black"/>
<path fill-rule="evenodd" clip-rule="evenodd" d="M365.872 44.4399C365.109 43.3358 363.508 41.559 362.132 42.6664C360.911 43.6484 361.124 46.0723 361.592 47.2767C362.852 50.5192 365.828 53.4079 369.195 51.5397C368.025 49.1961 367.366 46.6012 365.872 44.4399Z" fill="black"/>
</svg>
